<svg width="25" height="25" viewBox="0 0 25 25" fill="none" xmlns="http://www.w3.org/2000/svg">
<g id="Frame">
<path id="Vector" d="M17.8 2.05005C15.55 2.05005 13.85 2.95005 12.5 4.85005C11.15 3.00005 9.45 2.10005 7.2 2.10005C3.5 2.05005 0.5 5.30005 0.5 9.30005C0.5 12.95 3.2 15.3 5.8 17.55C6.1 17.8 6.45 18.1 6.75 18.4L7.9 19.4C10.1 21.35 11.2 22.35 11.7 22.65C11.95 22.8 12.25 22.9 12.5 22.9C12.75 22.9 13.05 22.8 13.3 22.65C13.8 22.35 14.7 21.55 17.2 19.25L18.2 18.35C18.55 18.0501 18.85 17.75 19.2 17.5C21.85 15.3 24.5 13 24.5 9.30005C24.5 5.30005 21.5 2.05005 17.8 2.05005Z" fill="" stroke="black" stroke-width="2" />
</g>
</svg>
